# xmcd
#
# Track frame offsets: 
#        150
#        19785
#        36232
#        54365
#        70662
#        93560
#        107147
#        133265
#        148467
#        177382
#        206742
#        230690
#        254025
#        269557
#        290202
#        314732
#        329575
#
# Disc length: 4683 seconds
#
# Revision: 0
# Processed by: cddbd v1.5.2PL0 Copyright (c) Steve Scherf et al.
# Submitted via: ExactAudioCopy v0.99pb4
#
DISCID=24124911
DTITLE=Megadeth - Anthology Set The World Afire CD 1
DYEAR=2008
DGENRE=Metal
TTITLE0=Mechanix
TTITLE1=Rattlehead
TTITLE2=Peace Sells
TTITLE3=Wake Up Dead
TTITLE4=Devils Island
TTITLE5=Anarchy In The UK
TTITLE6=Set The World Afire
TTITLE7=Into The Lungs Of Hell
TTITLE8=In My Darkest Hour
TTITLE9=Holy Wars...The Punishment Due
TTITLE10=Tornado Of Souls
TTITLE11=Hangar 18
TTITLE12=Take No Prisoners
TTITLE13=Go To Hell
TTITLE14=Sweating Bullets
TTITLE15=Crown Of Worms [Demo]
TTITLE16=High Speed Dirt [Demo]
EXTD=
EXTT0=
EXTT1=
EXTT2=
EXTT3=
EXTT4=
EXTT5=
EXTT6=
EXTT7=
EXTT8=
EXTT9=
EXTT10=
EXTT11=
EXTT12=
EXTT13=
EXTT14=
EXTT15=
EXTT16=
PLAYORDER=
